<?xml version="1.0" encoding="UTF-8" standalone="no"?>
<svg
   xmlns:dc="http://purl.org/dc/elements/1.1/"
   xmlns:cc="http://creativecommons.org/ns#"
   xmlns:rdf="http://www.w3.org/1999/02/22-rdf-syntax-ns#"
   xmlns:svg="http://www.w3.org/2000/svg"
   xmlns="http://www.w3.org/2000/svg"
   xmlns:sodipodi="http://sodipodi.sourceforge.net/DTD/sodipodi-0.dtd"
   xmlns:inkscape="http://www.inkscape.org/namespaces/inkscape"
   width="59.96331mm"
   height="52.203011mm"
   viewBox="0 0 59.96331 52.203011"
   version="1.1"
   id="svg2023"
   inkscape:version="1.0.1 (0767f8302a, 2020-10-17)"
   sodipodi:docname="computer.svg">
  <defs
     id="defs2017" />
  <sodipodi:namedview
     id="base"
     pagecolor="#ffffff"
     bordercolor="#666666"
     borderopacity="1.0"
     inkscape:pageopacity="0.0"
     inkscape:pageshadow="2"
     inkscape:zoom="0.98994949"
     inkscape:cx="-12.372855"
     inkscape:cy="377.24245"
     inkscape:document-units="mm"
     inkscape:current-layer="layer1"
     inkscape:document-rotation="0"
     showgrid="false"
     inkscape:window-width="2560"
     inkscape:window-height="1403"
     inkscape:window-x="0"
     inkscape:window-y="0"
     inkscape:window-maximized="1" />
  <metadata
     id="metadata2020">
    <rdf:RDF>
      <cc:Work
         rdf:about="">
        <dc:format>image/svg+xml</dc:format>
        <dc:type
           rdf:resource="http://purl.org/dc/dcmitype/StillImage" />
        <dc:title />
      </cc:Work>
    </rdf:RDF>
  </metadata>
  <g
     inkscape:label="Layer 1"
     inkscape:groupmode="layer"
     id="layer1"
     transform="translate(-66.085584,-69.854718)">
    <path
       style="fill:none;fill-rule:evenodd;stroke:#3a6675;stroke-width:1.065;stroke-linecap:butt;stroke-linejoin:miter;stroke-miterlimit:4;stroke-dasharray:none;stroke-opacity:1"
       d="m 70.327567,73.785895 c 1.641123,0 44.110083,-3.397738 44.110083,-3.397738 0,0 2.26294,0.126386 2.30563,2.623678 0.0427,2.497292 0.92719,33.506875 0.92719,33.506875 l -45.324165,2.96962 c 0,0 -1.003546,-0.30064 -1.35084,-1.7782 -0.347295,-1.47756 -2.113476,-31.579436 -2.113476,-31.579436 0,0 -0.01298,-2.058349 1.445578,-2.344799 z"
       id="path2652" />
    <path
       style="fill:none;fill-rule:evenodd;stroke:#3a6675;stroke-width:1.065;stroke-linecap:butt;stroke-linejoin:miter;stroke-miterlimit:4;stroke-dasharray:none;stroke-opacity:1"
       d="m 73.479515,78.374164 c 0,0 0.252978,-1.349812 2.925261,-1.611772 C 79.077057,76.500431 112.7055,74.64335 112.7055,74.64335 l 1.46245,27.58156 c 0,0 -0.22182,0.96616 -1.10326,0.96563 -0.88144,-5.1e-4 -36.418988,2.46166 -36.418988,2.46166 0,0 -1.191086,-0.27319 -1.191086,-1.34957 0,-1.07639 -1.975101,-25.928466 -1.975101,-25.928466 z"
       id="path2654" />
    <path
       style="fill:none;fill-rule:evenodd;stroke:#3a6675;stroke-width:1.065;stroke-linecap:butt;stroke-linejoin:miter;stroke-miterlimit:4;stroke-dasharray:none;stroke-opacity:1"
       d="m 82.526875,77.735687 -7.135388,8.791355"
       id="path2656" />
    <path
       style="fill:none;fill-rule:evenodd;stroke:#3a6675;stroke-width:1.065;stroke-linecap:butt;stroke-linejoin:miter;stroke-miterlimit:4;stroke-dasharray:none;stroke-opacity:1"
       d="M 84.921752,80.532647 76.111334,91.749125"
       id="path2658" />
    <path
       style="fill:none;fill-rule:evenodd;stroke:#3a6675;stroke-width:1.065;stroke-linecap:butt;stroke-linejoin:miter;stroke-miterlimit:4;stroke-dasharray:none;stroke-opacity:1"
       d="m 72.346305,109.48833 c 0,0 -6.266763,7.36835 -5.669889,8.45839 0.596873,1.09003 0.672577,1.82059 2.271088,1.73327 1.59851,-0.0873 54.648066,-3.03113 55.251196,-3.19278 0.60313,-0.16165 1.81646,-1.59129 1.02787,-2.51583 -0.78858,-0.92454 -7.5561,-7.45267 -7.5561,-7.45267 z"
       id="path2691" />
    <path
       style="fill:none;fill-rule:evenodd;stroke:#3a6675;stroke-width:1.065;stroke-linecap:butt;stroke-linejoin:miter;stroke-miterlimit:4;stroke-dasharray:none;stroke-opacity:1"
       d="m 66.862373,118.62512 c 0,0 0.765952,3.06651 3.656208,2.89365 2.890251,-0.17286 51.932759,-3.2571 51.932759,-3.2571 0,0 2.67466,-0.85497 2.97207,-2.97516 0.29741,-2.1202 -0.24972,0.0878 -0.24972,0.0878"
       id="path2693" />
    <path
       style="fill:none;fill-rule:evenodd;stroke:#3a6675;stroke-width:1.065;stroke-linecap:butt;stroke-linejoin:miter;stroke-miterlimit:4;stroke-dasharray:none;stroke-opacity:1"
       d="m 74.00817,111.69455 42.48443,-3.21363 c 0,0 5.57556,4.85311 4.67946,5.67018 -0.8961,0.81707 -2.00935,0.8868 -2.00935,0.8868 l -47.693543,2.7705 c 0,0 -1.2363,-6.5e-4 -0.87656,-1.03435 0.359738,-1.03354 3.415563,-5.0795 3.415563,-5.0795 z"
       id="path2695" />
    <path
       style="fill:none;fill-rule:evenodd;stroke:#3a6675;stroke-width:1.065;stroke-linecap:butt;stroke-linejoin:miter;stroke-miterlimit:4;stroke-dasharray:none;stroke-opacity:1"
       d="m 72.878438,113.71948 45.591292,-2.79226 0.17805,0.11198"
       id="path2697" />
    <path
       style="fill:none;fill-rule:evenodd;stroke:#3a6675;stroke-width:1.065;stroke-linecap:butt;stroke-linejoin:miter;stroke-miterlimit:4;stroke-dasharray:none;stroke-opacity:1"
       d="m 71.506521,115.69156 48.547999,-2.91201"
       id="path2699" />
    <path
       style="fill:none;fill-rule:evenodd;stroke:#3a6675;stroke-width:1.065;stroke-linecap:butt;stroke-linejoin:miter;stroke-miterlimit:4;stroke-dasharray:none;stroke-opacity:1"
       d="m 76.954988,111.72322 -2.217294,5.42543 v 0"
       id="path2701" />
    <path
       style="fill:none;fill-rule:evenodd;stroke:#3a6675;stroke-width:1.065;stroke-linecap:butt;stroke-linejoin:miter;stroke-miterlimit:4;stroke-dasharray:none;stroke-opacity:1"
       d="m 80.062115,111.32597 -1.849152,5.96742"
       id="path2703" />
    <path
       style="fill:none;fill-rule:evenodd;stroke:#3a6675;stroke-width:1.065;stroke-linecap:butt;stroke-linejoin:miter;stroke-miterlimit:4;stroke-dasharray:none;stroke-opacity:1"
       d="m 84.360946,111.01662 -1.127379,5.68016"
       id="path2705" />
    <path
       style="fill:none;fill-rule:evenodd;stroke:#3a6675;stroke-width:1.065;stroke-linecap:butt;stroke-linejoin:miter;stroke-miterlimit:4;stroke-dasharray:none;stroke-opacity:1"
       d="m 88.267789,110.94746 -1.298193,5.97432"
       id="path2707" />
    <path
       style="fill:none;fill-rule:evenodd;stroke:#3a6675;stroke-width:1.065;stroke-linecap:butt;stroke-linejoin:miter;stroke-miterlimit:4;stroke-dasharray:none;stroke-opacity:1"
       d="m 92.204291,110.34126 -0.178657,3.9983"
       id="path2709" />
    <path
       style="fill:none;fill-rule:evenodd;stroke:#3a6675;stroke-width:1.065;stroke-linecap:butt;stroke-linejoin:miter;stroke-miterlimit:4;stroke-dasharray:none;stroke-opacity:1"
       d="m 95.453154,110.38116 0.523859,3.85636"
       id="path2711" />
    <path
       style="fill:none;fill-rule:evenodd;stroke:#3a6675;stroke-width:1.065;stroke-linecap:butt;stroke-linejoin:miter;stroke-miterlimit:4;stroke-dasharray:none;stroke-opacity:1"
       d="m 99.894153,109.99423 0.184507,4.09041"
       id="path2713" />
    <path
       style="fill:none;fill-rule:evenodd;stroke:#3a6675;stroke-width:1.065;stroke-linecap:butt;stroke-linejoin:miter;stroke-miterlimit:4;stroke-dasharray:none;stroke-opacity:1"
       d="m 103.47917,109.81762 0.82995,5.96133"
       id="path2715" />
    <path
       style="fill:none;fill-rule:evenodd;stroke:#3a6675;stroke-width:1.065;stroke-linecap:butt;stroke-linejoin:miter;stroke-miterlimit:4;stroke-dasharray:none;stroke-opacity:1"
       d="m 107.43253,109.15073 0.92785,6.59181 -0.0281,-0.12707"
       id="path2717" />
    <path
       style="fill:none;fill-rule:evenodd;stroke:#3a6675;stroke-width:1.065;stroke-linecap:butt;stroke-linejoin:miter;stroke-miterlimit:4;stroke-dasharray:none;stroke-opacity:1"
       d="m 111.012,109.07573 2.36968,6.52062"
       id="path2719" />
    <path
       style="fill:none;fill-rule:evenodd;stroke:#3a6675;stroke-width:1.065;stroke-linecap:butt;stroke-linejoin:miter;stroke-miterlimit:4;stroke-dasharray:none;stroke-opacity:1"
       d="m 114.3956,108.75754 2.6053,6.69863"
       id="path2721" />
    <path
       style="fill:none;fill-rule:evenodd;stroke:#3a6675;stroke-width:1.065;stroke-linecap:butt;stroke-linejoin:miter;stroke-miterlimit:4;stroke-dasharray:none;stroke-opacity:1"
       d="M 85.234348,86.031525 78.098959,94.82288"
       id="path2656-5" />
    <ellipse
       style="color:#000000;overflow:visible;fill:none;stroke:#3a6675;stroke-width:1.065;stroke-linecap:round;stroke-miterlimit:4;stroke-dasharray:none;stroke-opacity:1"
       id="path2738"
       cx="94.227402"
       cy="73.901627"
       rx="1.038115"
       ry="0.96059233" />
  </g>
</svg>
