<?xml version="1.0" encoding="UTF-8" standalone="no"?>
<svg
   xmlns:dc="http://purl.org/dc/elements/1.1/"
   xmlns:cc="http://creativecommons.org/ns#"
   xmlns:rdf="http://www.w3.org/1999/02/22-rdf-syntax-ns#"
   xmlns:svg="http://www.w3.org/2000/svg"
   xmlns="http://www.w3.org/2000/svg"
   xmlns:sodipodi="http://sodipodi.sourceforge.net/DTD/sodipodi-0.dtd"
   xmlns:inkscape="http://www.inkscape.org/namespaces/inkscape"
   width="13.71083mm"
   height="9.9059696mm"
   viewBox="0 0 13.71083 9.9059696"
   version="1.1"
   id="svg9018"
   inkscape:version="1.0.1 (0767f8302a, 2020-10-17)"
   sodipodi:docname="hello.svg">
  <defs
     id="defs9012" />
  <sodipodi:namedview
     id="base"
     pagecolor="#ffffff"
     bordercolor="#666666"
     borderopacity="1.0"
     inkscape:pageopacity="0.0"
     inkscape:pageshadow="2"
     inkscape:zoom="0.35"
     inkscape:cx="1328.7674"
     inkscape:cy="-1141.2801"
     inkscape:document-units="mm"
     inkscape:current-layer="layer1"
     inkscape:document-rotation="0"
     showgrid="false"
     inkscape:window-width="2560"
     inkscape:window-height="1403"
     inkscape:window-x="0"
     inkscape:window-y="0"
     inkscape:window-maximized="1" />
  <metadata
     id="metadata9015">
    <rdf:RDF>
      <cc:Work
         rdf:about="">
        <dc:format>image/svg+xml</dc:format>
        <dc:type
           rdf:resource="http://purl.org/dc/dcmitype/StillImage" />
        <dc:title></dc:title>
      </cc:Work>
    </rdf:RDF>
  </metadata>
  <g
     inkscape:label="Layer 1"
     inkscape:groupmode="layer"
     id="layer1"
     transform="translate(245.73637,-450.13035)">
    <g
       aria-label="{''}"
       id="text7957-9-0-4"
       style="font-style:normal;font-variant:normal;font-weight:800;font-stretch:normal;font-size:10.5833px;line-height:125%;font-family:Montserrat;-inkscape-font-specification:'Montserrat, Ultra-Bold';font-variant-ligatures:normal;font-variant-caps:normal;font-variant-numeric:normal;font-variant-east-asian:normal;letter-spacing:0px;word-spacing:0px;fill:#c1ff00;fill-opacity:1;stroke:none;stroke-width:0.264583px;stroke-linecap:butt;stroke-linejoin:miter;stroke-opacity:1"
       transform="translate(-359.63355,158.43525)">
      <path
         d="m 116.72292,295.34634 q 0,0.58208 -0.1905,0.889 -0.17991,0.29633 -0.60325,0.41275 0.42334,0.11641 0.60325,0.42333 0.1905,0.29633 0.1905,0.87841 v 1.35467 q 0,0.37041 0.1905,0.56091 0.1905,0.20108 0.5715,0.20108 h 0.14817 v 1.53458 h -0.68792 q -1.10066,0 -1.67216,-0.53975 -0.56091,-0.52916 -0.56091,-1.52399 v -1.64041 q 0,-0.24342 -0.127,-0.35983 -0.11642,-0.11642 -0.32809,-0.11642 h -0.35983 v -1.54516 h 0.35983 q 0.21167,0 0.32809,-0.11642 0.127,-0.11641 0.127,-0.35983 v -1.64041 q 0,-0.99483 0.56091,-1.524 0.5715,-0.53975 1.67216,-0.53975 h 0.68792 v 1.53458 h -0.14817 q -0.381,0 -0.5715,0.20109 -0.1905,0.19049 -0.1905,0.56091 z"
         style="font-style:normal;font-variant:normal;font-weight:800;font-stretch:normal;font-size:10.5833px;font-family:Montserrat;-inkscape-font-specification:'Montserrat, Ultra-Bold';font-variant-ligatures:normal;font-variant-caps:normal;font-variant-numeric:normal;font-variant-east-asian:normal;fill:#c1ff00;fill-opacity:1;stroke-width:0.264583px"
         id="path8990" />
      <path
         d="m 118.39128,292.1396 h 1.69333 l -0.13758,3.09033 h -1.42875 z"
         style="font-style:normal;font-variant:normal;font-weight:800;font-stretch:normal;font-size:10.5833px;font-family:Montserrat;-inkscape-font-specification:'Montserrat, Ultra-Bold';font-variant-ligatures:normal;font-variant-caps:normal;font-variant-numeric:normal;font-variant-east-asian:normal;fill:#c1ff00;fill-opacity:1;stroke-width:0.264583px"
         id="path8992" />
      <path
         d="m 121.42985,292.1396 h 1.69332 l -0.13758,3.09033 h -1.42875 z"
         style="font-style:normal;font-variant:normal;font-weight:800;font-stretch:normal;font-size:10.5833px;font-family:Montserrat;-inkscape-font-specification:'Montserrat, Ultra-Bold';font-variant-ligatures:normal;font-variant-caps:normal;font-variant-numeric:normal;font-variant-east-asian:normal;fill:#c1ff00;fill-opacity:1;stroke-width:0.264583px"
         id="path8994" />
      <path
         d="m 127.60801,295.87551 v 1.54516 h -0.34925 q -0.21166,0 -0.33866,0.11642 -0.11642,0.11641 -0.11642,0.35983 v 1.64041 q 0,0.99483 -0.5715,1.52399 -0.56091,0.53975 -1.66158,0.53975 h -0.69849 v -1.53458 h 0.15875 q 0.38099,0 0.57149,-0.20108 0.1905,-0.1905 0.1905,-0.56091 v -1.35467 q 0,-0.58208 0.17992,-0.87841 0.1905,-0.30692 0.61383,-0.42333 -0.42333,-0.11642 -0.61383,-0.41275 -0.17992,-0.30692 -0.17992,-0.889 v -1.35466 q 0,-0.37042 -0.1905,-0.56091 -0.1905,-0.20109 -0.57149,-0.20109 h -0.15875 v -1.53458 h 0.69849 q 1.10067,0 1.66158,0.53975 0.5715,0.52917 0.5715,1.524 v 1.64041 q 0,0.24342 0.11642,0.35983 0.127,0.11642 0.33866,0.11642 z"
         style="font-style:normal;font-variant:normal;font-weight:800;font-stretch:normal;font-size:10.5833px;font-family:Montserrat;-inkscape-font-specification:'Montserrat, Ultra-Bold';font-variant-ligatures:normal;font-variant-caps:normal;font-variant-numeric:normal;font-variant-east-asian:normal;fill:#c1ff00;fill-opacity:1;stroke-width:0.264583px"
         id="path8996" />
    </g>
  </g>
</svg>
