<svg version="1.1" xmlns="http://www.w3.org/2000/svg" viewBox="0 0 581.3525169544337 219.4529695936344" width="581.3525169544337" height="219.4529695936344">
  <!-- svg-source:excalidraw -->
  
  <defs>
    <style>
      @font-face {
        font-family: "Virgil";
        src: url("https://excalidraw.com/Virgil.woff2");
      }
      @font-face {
        font-family: "Cascadia";
        src: url("https://excalidraw.com/Cascadia.woff2");
      }
    </style>
  </defs>
  <rect x="0" y="0" width="581.3525169544337" height="219.4529695936344" fill="#ffffff"></rect><g transform="translate(11.352516954433668 62.065856777493195) rotate(0 280 17.5)"><text x="280" y="25" font-family="Virgil, Segoe UI Emoji" font-size="28px" fill="#5c940d" text-anchor="middle" style="white-space: pre;" direction="ltr">https://dominio.com/carpeta/sub/imagen.jp</text></g><g transform="translate(16.10251695443378 10) rotate(0 28.12139917695464 19.22222222222217)"><text x="28.121399176954657" y="27.444444444444343" font-family="Virgil, Segoe UI Emoji" font-size="30.385568290654877px" fill="#c92a2a" text-anchor="middle" style="white-space: pre;" direction="ltr">URL</text></g><g><g transform="translate(11.158072509989097 108.89741403807886) rotate(0 37.59995441190836 0.05026144911539632)"><path d="M-1.1580725099891425 -0.5181296858936548 C3.945222971215844 -0.7419564399868249, 23.03651239213844 -1.5695783445542588, 29.761932227388023 -0.5694517526775599 C36.487352062637605 0.43067483919913896, 35.72076705830792 5.420745655963249, 39.19444650150835 5.482629865366539 C42.668125944708784 5.544514074769828, 44.76170715097753 0.8029218728481851, 50.6040088865906 -0.198146496257823 C56.44631062220367 -1.199214865363831, 70.17505758695847 0.07144674345574153, 74.24825691518677 -0.5237803492695093 C78.32145624341507 -1.1190074419947602, 75.28723483398845 -2.746587808747461, 75.0432048559604 -3.7695090526093282 C74.79917487793234 -4.792430296471196, 73.21543950332257 -6.5419573371470845, 72.78407704701849 -6.661307812440714 M0.4348006929270922 1.8242482836730778 C5.434305012952535 1.6872802318818867, 21.817062529058504 -0.1539190761117175, 28.68890118313953 0.6690113283880055 C35.56073983722056 1.4919417328877285, 37.919314048221956 7.252495796097495, 41.66583261741325 6.761830710671416 C45.412351186604546 6.271165625245336, 45.90272157112551 -1.0800031637572622, 51.16801259828731 -2.274979184168469 C56.43330362544911 -3.4699552045796755, 69.6006156054007 0.05255496898389228, 73.25757878038404 -0.40802541179582485 C76.91454195536737 -0.8686057925755419, 73.03238930335556 -4.2851969886577335, 73.10979164818728 -5.038461468846772 C73.18719399301901 -5.79172594903581, 73.9817160545655 -5.056552290263114, 73.72199284937435 -4.927612292930057" stroke="#0b7285" stroke-width="1" fill="none"></path></g></g><g><g transform="translate(122.26918362110018 104.4529695936344) rotate(0 64.51731305677447 -0.16497986302596246)"><path d="M0.5026020135730505 -0.4982028152793646 C5.553208013996482 -0.6811415610076059, 22.917728327559647 -1.5729374050680007, 29.251903649792077 -2.0700319978511743 C35.58607897202451 -2.5671265906343477, 26.131112554517635 -2.9918068064169123, 38.507653946967636 -3.480770371978406 C50.88419533941764 -3.9697339375398997, 89.74549929804562 -4.944124787342116, 103.51115200449208 -5.003813391220137 C117.27680471093853 -5.063501995098158, 116.87090872235046 -5.090989347698978, 121.10157018564641 -3.838901995246533 C125.33223164894235 -2.5868146427940886, 127.23838240367671 1.4458967672868352, 128.8951207842678 2.508710723494528 M-0.6926706586405635 -1.8053632386401297 C4.836482203193009 -1.7827548554525843, 25.101472386131398 -0.963486087839624, 31.57110760230571 -1.0360402121684364 C38.04074281848002 -1.108594336497249, 26.175646485497303 -1.714424486810071, 38.1251406384053 -2.240687984613005 C50.074634791313294 -2.7669514824159385, 89.58744903984874 -3.9481382094364017, 103.26807251975367 -4.193621198986039 C116.94869599965861 -4.4391041885356755, 115.79901080909568 -5.195160070027104, 120.20888151783497 -3.713585921910826 C124.61875222657426 -2.2320117737945484, 128.33344490268578 3.337786434239028, 129.72729677218945 4.695823689711629" stroke="#0b7285" stroke-width="1" fill="none"></path></g></g><g><g transform="translate(275.60251695443367 105.5640807047456) rotate(0 77.49035365262273 0.4958048262829493)"><path d="M1.1911032054573296 -1.0571693692356348 C10.924657797854781 -1.0212175283581018, 31.671992553204714 -0.9882049894305207, 57.2440442933389 -0.6045828972011804 C82.81609603347309 -0.22096080497184017, 138.253251495226 0.8955186523358711, 154.62341364626246 1.2445631841404066 M0.3572936589829623 1.0022127665765583 C10.084609790243597 1.2614070721156896, 31.000058663573537 0.44100862378531347, 56.599122083714704 0.6154363329894843 C82.19818550385587 0.7898640421936551, 137.3435750367443 1.7831912822324223, 153.95167417982998 2.0487790218015833" stroke="#0b7285" stroke-width="1" fill="none"></path></g></g><g><g transform="translate(456.71362806554475 111.11963626030115) rotate(0 51.09100139021973 -0.2437256693426093)"><path d="M-0.6009379897266626 0.9222979042679069 C-0.6752652321010827 0.8867960634468922, -18.255912219857176 -0.5313573183422629, 0.24213691614568233 -0.9200318428790979 C18.74018605214854 -1.308706367415933, 92.28792333664992 -1.2303943487918787, 110.38735682629049 -1.409749242953103 M1.284430836327374 0.3609003586694599 C1.0130605028942228 0.6083500218405259, -18.668885004234813 0.8193679888615664, -0.5787866665050387 0.71771002416398 C17.511311671224735 0.6160520594663936, 91.64922737269353 0.09672951106812439, 109.82502086270601 -0.2490474295160583" stroke="#0b7285" stroke-width="1" fill="none"></path></g></g><g><g transform="translate(50.04696139887801 125.5640807047456) rotate(0 -0.14888776279985905 25.0000835321471)"><path d="M-1.1329990301281214 0.2038166854530572 C-1.05434127189219 8.625797825430823, 0.5169489707797765 41.31043517726159, 0.8352235045284033 49.47378709055478 M0.4730377497151492 -0.7347835000231862 C0.4349695422127841 7.938105486643803, 0.33472831148654203 42.26699043354636, 0.32567038077861055 50.73495056431735" stroke="#0b7285" stroke-width="1" fill="none"></path></g><g transform="translate(50.04696139887801 125.5640807047456) rotate(0 -0.14888776279985905 25.0000835321471)"><path d="M-7.834212380967498 28.61620100689264 C-6.451053153524289 36.36380615772541, -4.1269698129627255 44.495144737936556, -0.568292563147843 50.24968429047609 M-7.767328884958685 27.149436848323365 C-4.8845526708300415 34.93742302968739, -4.339254235259099 41.14965521171697, 0.9582560823112725 50.27934924744064" stroke="#0b7285" stroke-width="1" fill="none"></path></g><g transform="translate(50.04696139887801 125.5640807047456) rotate(0 -0.14888776279985905 25.0000835321471)"><path d="M9.266754635540627 28.653257741475716 C5.002251570107692 36.227162558425114, 1.678345870113339 44.34626229678585, -0.568292563147843 50.24968429047609 M9.33363813154944 27.18649358290644 C7.332777742962142 34.91551925484995, 2.9943004391220835 41.117168597841015, 0.9582560823112725 50.27934924744064" stroke="#0b7285" stroke-width="1" fill="none"></path></g></g><g transform="translate(18.158072509989097 191.1196362603011) rotate(0 32.99999999999994 9.166666666666657)"><text x="32.99999999999993" y="13.3333333333333" font-family="Virgil, Segoe UI Emoji" font-size="14.666666666666648px" fill="#0b7285" text-anchor="middle" style="white-space: pre;" direction="ltr">protocolo</text></g><g><g transform="translate(186.71362806554475 120.5640807047456) rotate(0 -0.6624056682969695 25.097436926178574)"><path d="M-0.19912308789789668 0.12942408062517652 C-0.193647077460082 8.328959541891994, 0.5642588253866051 41.47293832438678, 0.4426523925871151 49.67585627771903 M-1.7628014383837582 -0.8482322223857045 C-1.931096758064123 7.485427104247093, -0.9062488941674021 42.5148077329123, -0.38475024564708304 51.04310607474286" stroke="#0b7285" stroke-width="1" fill="none"></path></g><g transform="translate(186.71362806554475 120.5640807047456) rotate(0 -0.6624056682969695 25.097436926178574)"><path d="M-9.69253706849189 28.310857529145853 C-7.174011254906924 33.764921221039565, -4.53994623495248 42.96648195946685, 0.2300963769242661 50.30442421633739 M-9.620393343372358 28.760612774034218 C-7.7202439263072264 33.143182519872, -4.711532948541635 40.35674504838721, 0.49398380374019313 50.41440404795099" stroke="#0b7285" stroke-width="1" fill="none"></path></g><g transform="translate(186.71362806554475 120.5640807047456) rotate(0 -0.6624056682969695 25.097436926178574)"><path d="M7.39372810817852 27.597213057595535 C4.205730149375458 33.261388582377315, 1.1304248861515491 42.7014134027145, 0.2300963769242661 50.30442421633739 M7.465871833298051 28.0469683024839 C5.024513769809657 32.451891190502735, 3.686467857859021 39.84700533322061, 0.49398380374019313 50.41440404795099" stroke="#0b7285" stroke-width="1" fill="none"></path></g></g><g transform="translate(164.32473917665584 186.39741403807892) rotate(0 23.5 9)"><text x="23.5" y="13" font-family="Virgil, Segoe UI Emoji" font-size="14.666666666666648px" fill="#0b7285" text-anchor="middle" style="white-space: pre;" direction="ltr">dominio</text></g><g><g transform="translate(348.8294220204191 120.56408070474549) rotate(0 -2.0386012822793873 25.395016687955206)"><path d="M-0.8833571467548609 0.26716899611055855 C-1.534161748297341 8.731200631942441, -4.553704114294684 41.81346234572971, -4.930944186418219 50.31089356347077 M0.8537416218593719 -0.6381712262704968 C0.6497294166238834 8.001622544351804, -2.05558713860724 42.547995754349174, -2.7888187423412636 51.42820460218095" stroke="#0b7285" stroke-width="1" fill="none"></path></g><g transform="translate(348.8294220204191 120.56408070474549) rotate(0 -2.0386012822793873 25.395016687955206)"><path d="M-9.179950767030657 24.920094994822236 C-9.590000725932319 33.24172071786524, -6.555551839526233 36.514907851316885, -0.9294455546949938 53.23134547527038 M-9.109845550564767 26.9689990198181 C-8.336318615549796 32.886857738850466, -5.127935185149402 39.40541167341162, -2.964728174923821 52.10398440956228" stroke="#0b7285" stroke-width="1" fill="none"></path></g><g transform="translate(348.8294220204191 120.56408070474549) rotate(0 -2.0386012822793873 25.395016687955206)"><path d="M8.295759884817976 26.304231313895677 C4.142798984587799 34.200329127230155, 3.428877708570279 37.17663246679769, -0.9294455546949938 53.23134547527038 M8.365865101283866 28.35313533889154 C4.40244930703772 33.786452995112626, 2.880957465117751 39.93038455925742, -2.964728174923821 52.10398440956228" stroke="#0b7285" stroke-width="1" fill="none"></path></g></g><g transform="translate(323.10251695443367 184.34185848252332) rotate(0 32.5 9)"><text x="32.5" y="13" font-family="Virgil, Segoe UI Emoji" font-size="14.666666666666648px" fill="#0b7285" text-anchor="middle" style="white-space: pre;" direction="ltr">carpetas</text></g><g><g transform="translate(508.6364057851388 117.78630292696778) rotate(0 -1.7606777764450499 25.489470605631794)"><path d="M-0.9382054354995488 -0.1145769987255334 C-1.4804059994178638 8.680807896192945, -3.984117396154814 43.46319919047792, -4.291453534413949 52.199275079659095 M0.7700979815237226 -1.2203338683955371 C0.6704212874775007 7.314773622333833, -1.4933956243818631 42.01384444259021, -2.1813093751602626 50.64798641436817" stroke="#0b7285" stroke-width="1" fill="none"></path></g><g transform="translate(508.6364057851388 117.78630292696778) rotate(0 -1.7606777764450499 25.489470605631794)"><path d="M-9.456804771912559 24.133233934824002 C-6.057328517447919 31.956502007411704, -4.37392282132693 35.81200220171269, -2.439149775721953 52.434010901014226 M-9.964191135023995 26.08610018267913 C-5.890095783039783 35.25809648946042, -3.827173075423266 42.80673265723951, -2.6366485806115723 50.96920007419856" stroke="#0b7285" stroke-width="1" fill="none"></path></g><g transform="translate(508.6364057851388 117.78630292696778) rotate(0 -1.7606777764450499 25.489470605631794)"><path d="M8.015964031062705 25.335682884963713 C7.691110419170052 32.765644450636096, 5.644444211598528 36.36444686022325, -2.439149775721953 52.434010901014226 M7.508577667951268 27.28854913281884 C5.29273501542043 36.14134740687247, 1.0759490779870555 43.25782372909017, -2.6366485806115723 50.96920007419856" stroke="#0b7285" stroke-width="1" fill="none"></path></g></g><g transform="translate(482.3247391766556 179.89741403807886) rotate(0 25.5 9)"><text x="25.5" y="13" font-family="Virgil, Segoe UI Emoji" font-size="14.666666666666648px" fill="#0b7285" text-anchor="middle" style="white-space: pre;" direction="ltr">archivo</text></g></svg>